<mxfile host="app.diagrams.net" agent="Mozilla/5.0 (Windows NT 10.0; Win64; x64) AppleWebKit/537.36 (KHTML, like Gecko) Chrome/129.0.0.0 Safari/537.36 Edg/129.0.0.0" version="24.7.17">
  <diagram id="R2lEEEUBdFMjLlhIrx00" name="Page-1">
    <mxGraphModel dx="1524" dy="647" grid="1" gridSize="10" guides="1" tooltips="1" connect="1" arrows="1" fold="1" page="1" pageScale="1" pageWidth="850" pageHeight="1100" math="0" shadow="0" extFonts="Permanent Marker^https://fonts.googleapis.com/css?family=Permanent+Marker">
      <root>
        <mxCell id="0" />
        <mxCell id="1" parent="0" />
        <mxCell id="SvtOf54RBf60w3_c9CGu-33" value="Категория" style="html=1;whiteSpace=wrap;" parent="1" vertex="1">
          <mxGeometry x="350" y="160" width="110" height="50" as="geometry" />
        </mxCell>
        <mxCell id="SvtOf54RBf60w3_c9CGu-50" value="" style="endArrow=open;endFill=1;endSize=12;html=1;rounded=0;entryX=0.5;entryY=1;entryDx=0;entryDy=0;" parent="1" target="0h4Iew1tskDNgC4aMu7y-6" edge="1">
          <mxGeometry width="160" relative="1" as="geometry">
            <mxPoint x="641.3274336283187" y="310" as="sourcePoint" />
            <mxPoint x="645" y="220" as="targetPoint" />
          </mxGeometry>
        </mxCell>
        <mxCell id="SvtOf54RBf60w3_c9CGu-51" value="" style="endArrow=diamondThin;endFill=1;endSize=15;html=1;rounded=0;exitX=0.5;exitY=0;exitDx=0;exitDy=0;entryX=0.5;entryY=1;entryDx=0;entryDy=0;" parent="1" source="0h4Iew1tskDNgC4aMu7y-4" target="0h4Iew1tskDNgC4aMu7y-3" edge="1">
          <mxGeometry width="160" relative="1" as="geometry">
            <mxPoint x="399.53999999999996" y="460.8399999999999" as="sourcePoint" />
            <mxPoint x="399.53999999999996" y="414.702" as="targetPoint" />
          </mxGeometry>
        </mxCell>
        <mxCell id="0h4Iew1tskDNgC4aMu7y-2" value="Читатель" style="rounded=0;whiteSpace=wrap;html=1;" parent="1" vertex="1">
          <mxGeometry x="575" y="310" width="120" height="60" as="geometry" />
        </mxCell>
        <mxCell id="0h4Iew1tskDNgC4aMu7y-3" value="Книга" style="rounded=0;whiteSpace=wrap;html=1;" parent="1" vertex="1">
          <mxGeometry x="345" y="310" width="120" height="60" as="geometry" />
        </mxCell>
        <mxCell id="0h4Iew1tskDNgC4aMu7y-4" value="Экземпляр книги" style="rounded=0;whiteSpace=wrap;html=1;" parent="1" vertex="1">
          <mxGeometry x="350" y="460" width="120" height="60" as="geometry" />
        </mxCell>
        <mxCell id="0h4Iew1tskDNgC4aMu7y-5" value="Сотрудник библиотеки" style="rounded=0;whiteSpace=wrap;html=1;" parent="1" vertex="1">
          <mxGeometry x="145" y="320" width="120" height="60" as="geometry" />
        </mxCell>
        <mxCell id="0h4Iew1tskDNgC4aMu7y-6" value="Заказ" style="rounded=0;whiteSpace=wrap;html=1;" parent="1" vertex="1">
          <mxGeometry x="585" y="155" width="120" height="60" as="geometry" />
        </mxCell>
        <mxCell id="0h4Iew1tskDNgC4aMu7y-8" value="" style="endArrow=open;endFill=1;endSize=12;html=1;rounded=0;exitX=0.322;exitY=-0.045;exitDx=0;exitDy=0;exitPerimeter=0;entryX=0.5;entryY=0;entryDx=0;entryDy=0;" parent="1" source="0h4Iew1tskDNgC4aMu7y-5" target="0h4Iew1tskDNgC4aMu7y-6" edge="1">
          <mxGeometry width="160" relative="1" as="geometry">
            <mxPoint x="651.3274336283187" y="320" as="sourcePoint" />
            <mxPoint x="645" y="130" as="targetPoint" />
            <Array as="points">
              <mxPoint x="185" y="120" />
              <mxPoint x="645" y="120" />
            </Array>
          </mxGeometry>
        </mxCell>
        <mxCell id="0h4Iew1tskDNgC4aMu7y-9" value="" style="endArrow=diamondThin;endFill=0;endSize=24;html=1;rounded=0;entryX=0.618;entryY=1.012;entryDx=0;entryDy=0;entryPerimeter=0;" parent="1" target="SvtOf54RBf60w3_c9CGu-33" edge="1">
          <mxGeometry width="160" relative="1" as="geometry">
            <mxPoint x="418" y="309" as="sourcePoint" />
            <mxPoint x="206" y="331" as="targetPoint" />
            <Array as="points" />
          </mxGeometry>
        </mxCell>
        <mxCell id="0h4Iew1tskDNgC4aMu7y-10" value="" style="endArrow=diamondThin;endFill=1;endSize=15;html=1;rounded=0;exitX=0.5;exitY=0;exitDx=0;exitDy=0;entryX=0.5;entryY=0;entryDx=0;entryDy=0;" parent="1" source="0h4Iew1tskDNgC4aMu7y-3" target="0h4Iew1tskDNgC4aMu7y-5" edge="1">
          <mxGeometry width="160" relative="1" as="geometry">
            <mxPoint x="409.53999999999996" y="470.8399999999999" as="sourcePoint" />
            <mxPoint x="405" y="381" as="targetPoint" />
            <Array as="points">
              <mxPoint x="405" y="260" />
              <mxPoint x="205" y="260" />
            </Array>
          </mxGeometry>
        </mxCell>
        <mxCell id="0h4Iew1tskDNgC4aMu7y-11" value="" style="endArrow=none;html=1;rounded=0;exitX=1;exitY=0.5;exitDx=0;exitDy=0;entryX=0;entryY=0.5;entryDx=0;entryDy=0;" parent="1" source="0h4Iew1tskDNgC4aMu7y-3" target="0h4Iew1tskDNgC4aMu7y-2" edge="1">
          <mxGeometry width="50" height="50" relative="1" as="geometry">
            <mxPoint x="535" y="340" as="sourcePoint" />
            <mxPoint x="585" y="290" as="targetPoint" />
          </mxGeometry>
        </mxCell>
        <mxCell id="0h4Iew1tskDNgC4aMu7y-12" value="" style="endArrow=none;html=1;rounded=0;entryX=0.5;entryY=1;entryDx=0;entryDy=0;exitX=1;exitY=0.5;exitDx=0;exitDy=0;" parent="1" source="0h4Iew1tskDNgC4aMu7y-4" target="0h4Iew1tskDNgC4aMu7y-2" edge="1">
          <mxGeometry width="50" height="50" relative="1" as="geometry">
            <mxPoint x="535" y="340" as="sourcePoint" />
            <mxPoint x="585" y="290" as="targetPoint" />
            <Array as="points">
              <mxPoint x="635" y="480" />
            </Array>
          </mxGeometry>
        </mxCell>
      </root>
    </mxGraphModel>
  </diagram>
</mxfile>
